# xmcd CD database file
#
# Track frame offsets:
#	150
#	15295
#	26098
#	40200
#	52564
#	63937
#	77674
#	91973
#	107368
#	120941
#
# Disc length: 1836 seconds
#
# Revision: 0
# Processed by: cddbd v1.4PL0 Copyright (c) Steve Scherf et al.
# Submitted via: CdAid 2001.05.15.01
#
DISCID=60072a0a
DTITLE=Eddy Raven - Legendary Hits
DYEAR=1900
DGENRE=
TTITLE0=Shine, Shine Shine
TTITLE1=I Got Mexico
TTITLE2=I Should've Called
TTITLE3=I Could Another You
TTITLE4=I'm Gonna Get You
TTITLE5=Operator, Operator
TTITLE6=I Wanna Hear It From You
TTITLE7=You Should've Been Gone By Now
TTITLE8=Right Hand Man
TTITLE9=Joe Knows How To Live
EXTD=
EXTT0=
EXTT1=
EXTT2=
EXTT3=
EXTT4=
EXTT5=
EXTT6=
EXTT7=
EXTT8=
EXTT9=
PLAYORDER=
